<svg width="57" height="19" viewBox="0 0 57 19" fill="none" xmlns="http://www.w3.org/2000/svg">
<path fill-rule="evenodd" clip-rule="evenodd" d="M56.3525 4.25115C56.773 4.25115 57.0057 4.73877 56.7411 5.06569L53.8563 8.63046C53.6562 8.87775 53.2791 8.87775 53.079 8.63046L50.1942 5.06577C49.9297 4.73885 50.1624 4.25124 50.5829 4.25124L56.3525 4.25115Z" fill="#B8C5D3"/>
<path d="M8.47656 9.8418C8.35352 10.8945 7.96387 11.708 7.30762 12.2822C6.65592 12.8519 5.78776 13.1367 4.70312 13.1367C3.52734 13.1367 2.58398 12.7152 1.87305 11.8721C1.16667 11.029 0.813477 9.90104 0.813477 8.48828V7.53125C0.813477 6.60612 0.977539 5.79264 1.30566 5.09082C1.63835 4.389 2.10775 3.85124 2.71387 3.47754C3.31999 3.09928 4.02181 2.91016 4.81934 2.91016C5.87663 2.91016 6.72428 3.20638 7.3623 3.79883C8.00033 4.38672 8.37174 5.20247 8.47656 6.24609H7.15723C7.04329 5.45312 6.79492 4.87891 6.41211 4.52344C6.03385 4.16797 5.50293 3.99023 4.81934 3.99023C3.98079 3.99023 3.32227 4.30013 2.84375 4.91992C2.36979 5.53971 2.13281 6.42155 2.13281 7.56543V8.5293C2.13281 9.60938 2.3584 10.4684 2.80957 11.1064C3.26074 11.7445 3.89193 12.0635 4.70312 12.0635C5.43229 12.0635 5.99056 11.8994 6.37793 11.5713C6.76986 11.2386 7.02962 10.6621 7.15723 9.8418H8.47656ZM11.3408 6.49902C11.9014 5.81087 12.6305 5.4668 13.5283 5.4668C15.0915 5.4668 15.8799 6.34863 15.8936 8.1123V13H14.6289V8.10547C14.6243 7.57227 14.5013 7.17806 14.2598 6.92285C14.0228 6.66764 13.6514 6.54004 13.1455 6.54004C12.7354 6.54004 12.3753 6.64941 12.0654 6.86816C11.7555 7.08691 11.514 7.37402 11.3408 7.72949V13H10.0762V2.5H11.3408V6.49902ZM22.3535 13C22.2806 12.8542 22.2214 12.5944 22.1758 12.2207C21.5879 12.8314 20.8861 13.1367 20.0703 13.1367C19.3411 13.1367 18.7419 12.9316 18.2725 12.5215C17.8076 12.1068 17.5752 11.5827 17.5752 10.9492C17.5752 10.179 17.8669 9.58203 18.4502 9.1582C19.0381 8.72982 19.863 8.51562 20.9248 8.51562H22.1553V7.93457C22.1553 7.49251 22.0231 7.1416 21.7588 6.88184C21.4945 6.61751 21.1048 6.48535 20.5898 6.48535C20.1387 6.48535 19.7604 6.59928 19.4551 6.82715C19.1497 7.05501 18.9971 7.33073 18.9971 7.6543H17.7256C17.7256 7.28516 17.8555 6.92969 18.1152 6.58789C18.3796 6.24154 18.735 5.9681 19.1816 5.76758C19.6328 5.56706 20.1273 5.4668 20.665 5.4668C21.5173 5.4668 22.1849 5.68099 22.668 6.10938C23.151 6.5332 23.4017 7.11882 23.4199 7.86621V11.2705C23.4199 11.9495 23.5065 12.4896 23.6797 12.8906V13H22.3535ZM20.2549 12.0361C20.6514 12.0361 21.0273 11.9336 21.3828 11.7285C21.7383 11.5234 21.9958 11.2568 22.1553 10.9287V9.41113H21.1641C19.6146 9.41113 18.8398 9.86458 18.8398 10.7715C18.8398 11.168 18.972 11.4779 19.2363 11.7012C19.5007 11.9245 19.8402 12.0361 20.2549 12.0361ZM26.5986 5.60352L26.6396 6.5332C27.2048 5.82227 27.943 5.4668 28.8545 5.4668C30.4176 5.4668 31.2061 6.34863 31.2197 8.1123V13H29.9551V8.10547C29.9505 7.57227 29.8275 7.17806 29.5859 6.92285C29.349 6.66764 28.9775 6.54004 28.4717 6.54004C28.0615 6.54004 27.7015 6.64941 27.3916 6.86816C27.0817 7.08691 26.8402 7.37402 26.667 7.72949V13H25.4023V5.60352H26.5986ZM32.8262 9.24023C32.8262 8.08724 33.0928 7.17122 33.626 6.49219C34.1592 5.80859 34.8656 5.4668 35.7451 5.4668C36.6475 5.4668 37.3516 5.78581 37.8574 6.42383L37.9189 5.60352H39.0742V12.8223C39.0742 13.7793 38.7894 14.5335 38.2197 15.085C37.6546 15.6364 36.8936 15.9121 35.9365 15.9121C35.4033 15.9121 34.8815 15.7982 34.3711 15.5703C33.8607 15.3424 33.471 15.0303 33.2021 14.6338L33.8584 13.875C34.4007 14.5449 35.0638 14.8799 35.8477 14.8799C36.4629 14.8799 36.9414 14.7067 37.2832 14.3604C37.6296 14.014 37.8027 13.5264 37.8027 12.8975V12.2617C37.2969 12.8451 36.6064 13.1367 35.7314 13.1367C34.8656 13.1367 34.1637 12.7881 33.626 12.0908C33.0928 11.3936 32.8262 10.4434 32.8262 9.24023ZM34.0977 9.38379C34.0977 10.2178 34.2686 10.874 34.6104 11.3525C34.9521 11.8265 35.4307 12.0635 36.0459 12.0635C36.8434 12.0635 37.429 11.7012 37.8027 10.9766V7.59961C37.4154 6.89323 36.8343 6.54004 36.0596 6.54004C35.4443 6.54004 34.9635 6.7793 34.6172 7.25781C34.2708 7.73633 34.0977 8.44499 34.0977 9.38379ZM44.0576 13.1367C43.055 13.1367 42.2393 12.8086 41.6104 12.1523C40.9814 11.4915 40.667 10.6097 40.667 9.50684V9.27441C40.667 8.54069 40.806 7.88672 41.084 7.3125C41.3665 6.73372 41.7585 6.28255 42.2598 5.95898C42.7656 5.63086 43.3125 5.4668 43.9004 5.4668C44.862 5.4668 45.6094 5.78353 46.1426 6.41699C46.6758 7.05046 46.9424 7.95736 46.9424 9.1377V9.66406H41.9316C41.9499 10.3932 42.1618 10.9834 42.5674 11.4346C42.9775 11.8812 43.4971 12.1045 44.126 12.1045C44.5726 12.1045 44.9508 12.0133 45.2607 11.8311C45.5706 11.6488 45.8418 11.4072 46.0742 11.1064L46.8467 11.708C46.2269 12.6605 45.2972 13.1367 44.0576 13.1367ZM43.9004 6.50586C43.39 6.50586 42.9616 6.69271 42.6152 7.06641C42.2689 7.43555 42.0547 7.95508 41.9727 8.625H45.6777V8.5293C45.6413 7.88672 45.4681 7.38997 45.1582 7.03906C44.8483 6.68359 44.429 6.50586 43.9004 6.50586Z" fill="#748AA1"/>
</svg>
